# Blender v2.82 (sub 7) OBJ File: ''
# www.blender.org
mtllib grassModel.mtl
o Plane
v -0.253263 0.000000 -0.543929
v 0.253263 -0.000000 0.543928
v -0.253263 1.200000 -0.543928
v -0.543928 0.000001 0.253262
v 0.543928 0.000000 -0.253263
v 0.543928 1.200000 -0.253262
v 0.253263 1.200000 0.543929
v -0.543928 1.200000 0.253263
vt 0.000100 0.000100
vt 0.999900 0.000100
vt 0.000100 0.999900
vt 0.000100 0.000100
vt 0.999900 0.000100
vt 0.999900 0.999900
vt 0.999900 0.999900
vt 0.000100 0.999900
vn -0.9065 -0.0000 0.4221
vn 0.4221 -0.0000 0.9065
usemtl Material.001
s 1
f 1/1/1 2/2/1 3/3/1
f 4/4/2 5/5/2 6/6/2
f 2/2/1 7/7/1 3/3/1
f 8/8/2 4/4/2 6/6/2
